<svg width="304.0465850830078" height="64.8" viewBox="0 0 304.0465850830078 64.8" class="css-1j8o68f"><defs id="SvgjsDefs1917"><linearGradient id="SvgjsLinearGradient1924"><stop id="SvgjsStop1925" stop-color="#00ff8f" offset="0"></stop><stop id="SvgjsStop1926" stop-color="#00a1ff" offset="1"></stop></linearGradient></defs><g id="SvgjsG1918" featurekey="nameLeftFeature-0" transform="matrix(1.2852336384449643,0,0,1.2852336384449643,-3.0779212687515907,-0.4227975328680138)" fill="url(#SvgjsLinearGradient1924)"><path d="M2.4 12 l16.44 0 c0.92 0 1.8 0.48 2.24 1.32 c0.44 0.8 0.44 1.76 -0.04 2.56 l-11.52 19 l11.88 0 l0 5.12 l-16.44 0 c-0.92 0 -1.76 -0.48 -2.24 -1.32 c-0.44 -0.8 -0.44 -1.76 0.04 -2.56 l11.56 -19 l-11.92 0 l0 -5.12 z M43.498000000000005 17.12 l-11.44 0 l0 6.32 l11.44 0 l0 5.12 l-11.44 0 l0 6.32 l11.44 0 l0 5.12 l-16.56 0 l0 -28 l16.56 0 l0 5.12 z M69.15599999999999 12 l0 25.44 c0 1.12 -0.72 2.12 -1.84 2.44 c-0.96 0.32 -2.08 0.08 -2.84 -1.04 l-10.32 -15.72 l0 16.88 l-5.12 0 l0 -25.44 c0 -1.12 0.76 -2.12 1.84 -2.44 s2.24 0.08 2.88 1.04 l10.28 15.72 l0 -16.88 l5.12 0 z"></path></g><g id="SvgjsG1919" featurekey="inlineSymbolFeature-0" transform="matrix(0.648,0,0,0.648,106,0)" fill="#e4f9f5"><path xmlns="http://www.w3.org/2000/svg" d="M46.342,19.451c-3.098,0-5.638-2.543-5.638-5.662c0-3.146,2.542-5.671,5.638-5.671c3.144,0,5.669,2.525,5.669,5.671  C52.01,16.908,49.485,19.451,46.342,19.451z M92.096,69.044l-3.018-18.808c-0.351-1.758-1.885-3.097-3.715-3.097  c-1.115,0-2.098,0.476-2.819,1.237L68.64,61.419c-0.23,0.196-0.45,0.419-0.649,0.697c-1.307,1.782-0.935,4.307,0.848,5.637  c0.34,0.253,0.713,0.42,1.085,0.569l3.492,1.162c-3.366,9.504-11.586,16.733-21.682,18.736l0.022-61.741  c4.949-2.106,8.369-7.007,8.369-12.691C60.125,6.163,53.965,0,46.339,0c-7.593,0-13.778,6.162-13.778,13.79  c0,5.684,3.541,10.584,8.466,12.691l0.022,61.836c-10.315-1.854-18.852-9.153-22.298-18.832l3.516-1.162  c0.374-0.149,0.745-0.316,1.094-0.569c1.782-1.33,2.178-3.856,0.839-5.637c-0.199-0.278-0.396-0.5-0.642-0.697L9.647,48.377  c-0.689-0.761-1.702-1.236-2.796-1.236c-1.853,0-3.412,1.337-3.74,3.095L0.094,69.044C0.024,69.337,0,69.662,0,69.987  c0,2.226,1.804,4.031,4.03,4.031c0.419,0,0.817-0.046,1.189-0.174l3.27-1.062C13.685,88.572,28.555,100,46.096,100  c17.539,0,32.419-11.431,37.613-27.243l3.263,1.084c0.373,0.127,0.77,0.175,1.188,0.175c2.234,0,4.038-1.804,4.038-4.031  C92.197,69.662,92.165,69.337,92.096,69.044z"></path></g><g id="SvgjsG1920" featurekey="nameRightFeature-0" transform="matrix(1.2857142857142858,0,0,1.2857142857142858,172.9654291697911,-0.42857020241873656)" fill="#e4f9f5"><path d="M10.138 12 l14 0 c0.68 0 1.32 0.28 1.8 0.76 l2.48 2.44 c0.48 0.48 0.72 1.12 0.72 1.8 l0 8.2 c0 0.68 -0.24 1.32 -0.72 1.8 l-2.48 2.44 c-0.48 0.48 -1.12 0.76 -1.8 0.76 l-8.88 0 l0 9.8 l-5.12 0 l0 -28 z M15.258 17.12 l0 7.96 l7.84 0 l0.92 -0.96 l0 -6.04 l-0.92 -0.96 l-7.84 0 z M40.236 12 l7.88 0 c0.68 0 1.36 0.28 1.84 0.76 l3 3 c0.48 0.48 0.72 1.12 0.72 1.8 l0 16.88 c0 0.68 -0.24 1.32 -0.72 1.8 l-3 3 c-0.48 0.48 -1.16 0.76 -1.84 0.76 l-7.88 0 c-0.68 0 -1.32 -0.28 -1.8 -0.76 l-3 -3 c-0.48 -0.48 -0.76 -1.12 -0.76 -1.8 l0 -16.88 c0 -0.68 0.28 -1.32 0.76 -1.8 l3 -3 c0.48 -0.48 1.12 -0.76 1.8 -0.76 z M41.315999999999995 17.12 l-1.52 1.48 l0 14.76 l1.52 1.52 l5.76 0 l1.48 -1.52 l0 -14.76 l-1.48 -1.48 l-5.76 0 z M59.21399999999999 12 l14 0 c0.68 0 1.32 0.28 1.8 0.76 l2.48 2.44 c0.48 0.48 0.72 1.12 0.72 1.8 l0 8.2 c0 0.68 -0.24 1.32 -0.72 1.8 l-2.32 2.28 l3.04 10.72 l-5.32 0 l-2.6 -9.08 l-0.96 -0.72 l-5 0 l0 9.8 l-5.12 0 l0 -28 z M64.33399999999999 17.12 l0 7.96 l7.84 0 l0.92 -0.96 l0 -6.04 l-0.92 -0.96 l-7.84 0 z M101.952 17.12 l-6.56 0 l0 22.88 l-5.12 0 l0 -22.88 l-6.52 0 l0 -5.12 l18.2 0 l0 5.12 z"></path></g></svg>